<?xml version="1.0" standalone="no"?>
<!DOCTYPE svg PUBLIC "-//W3C//DTD SVG 20010904//EN"
 "http://www.w3.org/TR/2001/REC-SVG-20010904/DTD/svg10.dtd">
<svg version="1.0" xmlns="http://www.w3.org/2000/svg"
 width="421.000000pt" height="421.000000pt" viewBox="0 0 421.000000 421.000000"
 preserveAspectRatio="xMidYMid meet">
<metadata>
Created by potrace 1.14, written by Peter Selinger 2001-2017
</metadata>
<g transform="translate(0.000000,421.000000) scale(0.100000,-0.100000)"
fill="#000000" stroke="none">
<path d="M2258 3735 c-6 -5 -129 -15 -258 -19 -117 -4 -260 -30 -307 -55 -10
-5 -47 -24 -83 -41 -36 -18 -81 -44 -100 -58 -43 -31 -138 -127 -165 -166 -11
-16 -37 -48 -57 -70 -21 -23 -38 -44 -38 -48 0 -4 -6 -13 -12 -20 -31 -33
-102 -177 -115 -233 -1 -5 -7 -30 -13 -55 -7 -25 -14 -54 -16 -65 -2 -11 -7
-31 -10 -45 -4 -14 -8 -106 -9 -205 -3 -171 7 -289 34 -405 5 -24 9 -45 8 -45
-61 -19 -76 -55 -71 -170 3 -72 36 -264 49 -285 3 -5 -16 -8 -42 -8 -95 0
-104 -2 -130 -28 l-26 -26 7 -176 c4 -98 9 -202 11 -232 5 -87 18 -352 19
-382 1 -19 -13 -42 -51 -81 -46 -48 -133 -187 -117 -187 4 0 2 -6 -4 -12 -8
-11 -28 -69 -38 -113 -1 -5 -10 -39 -19 -75 -9 -36 -19 -76 -22 -89 -2 -14 -6
-28 -8 -32 -9 -13 20 -16 174 -18 85 -1 158 -4 163 -7 12 -7 2164 -8 2176 0 5
3 83 6 173 7 90 1 169 4 175 6 8 3 2 43 -21 131 -64 246 -100 319 -206 419
-27 25 -35 40 -33 60 1 15 5 88 8 163 3 74 8 164 11 200 4 56 14 246 19 360 2
38 -14 79 -38 99 -8 7 -44 13 -81 13 l-67 1 6 31 c3 17 8 42 11 56 3 14 7 36
10 50 3 14 7 36 10 50 3 14 8 61 10 105 4 90 -14 150 -46 160 -14 5 -18 13
-14 26 3 10 7 28 10 38 3 11 8 29 10 40 3 12 7 30 10 41 18 71 30 143 40 225
3 28 8 61 11 75 3 14 8 67 11 119 6 111 -5 172 -54 291 -34 83 -110 210 -125
210 -4 0 -8 6 -8 13 -1 16 -65 87 -79 87 -6 0 -11 4 -11 9 0 20 -87 51 -143
51 -43 0 -57 4 -57 14 0 8 -10 27 -23 43 -12 15 -30 45 -39 65 -19 40 -57 71
-96 76 -13 1 -34 12 -45 23 -39 37 -130 75 -207 85 -19 3 -40 7 -47 9 -6 2
-13 2 -15 0z"/>
</g>
</svg>
